<?xml version="1.0" standalone="no"?>
<!DOCTYPE svg PUBLIC "-//W3C//DTD SVG 20010904//EN"
 "http://www.w3.org/TR/2001/REC-SVG-20010904/DTD/svg10.dtd">
<svg version="1.0" xmlns="http://www.w3.org/2000/svg"
 width="512.000000pt" height="512.000000pt" viewBox="0 0 512.000000 512.000000"
 preserveAspectRatio="xMidYMid meet">

<g transform="translate(0.000000,512.000000) scale(0.100000,-0.100000)"
fill="#000000" stroke="none">
<path d="M2926 4258 c-23 -6 -58 -29 -86 -57 l-47 -46 -436 -1530 c-241 -842
-437 -1546 -437 -1566 0 -52 46 -136 91 -166 91 -60 192 -51 269 26 l46 46
438 1534 c360 1262 437 1542 433 1577 -14 128 -145 216 -271 182z"/>
<path d="M1444 3620 c-18 -4 -47 -16 -65 -28 -19 -12 -233 -220 -476 -464
-302 -302 -447 -455 -458 -480 -19 -48 -19 -128 1 -176 18 -45 878 -911 939
-947 90 -52 181 -40 255 35 70 69 85 158 43 245 -9 17 -178 193 -376 392
l-362 363 367 367 c358 359 367 369 383 426 24 84 8 145 -54 207 -60 60 -121
79 -197 60z"/>
<path d="M3566 3618 c-25 -7 -58 -29 -86 -57 -70 -70 -85 -159 -43 -246 9 -16
178 -193 376 -392 l362 -363 -362 -362 c-198 -200 -367 -376 -376 -393 -42
-87 -27 -176 43 -245 74 -75 165 -87 255 -35 61 36 921 902 939 947 20 48 20
128 0 176 -18 45 -877 911 -939 947 -48 28 -116 38 -169 23z"/>
</g>
</svg>
